<svg width="25" height="31" viewBox="0 0 25 31" fill="none" xmlns="http://www.w3.org/2000/svg">
<path d="M24.3115 8.87977L22.0604 11.5342C21.8309 11.8048 21.4598 11.8048 21.2303 11.5342L15.8101 5.14286C15.5806 4.87223 15.5806 4.43463 15.8101 4.164L18.0612 1.50958C18.9743 0.432842 20.4588 0.432842 21.3768 1.50958L24.3115 4.97012C25.2295 6.04686 25.2295 7.79728 24.3115 8.87977ZM13.8764 6.44415L1.05358 21.5646L0.0183751 28.5605C-0.123233 29.5048 0.575041 30.3224 1.37586 30.1612L7.30875 28.9348L20.1316 13.8143C20.3611 13.5437 20.3611 13.1061 20.1316 12.8355L14.7114 6.44415C14.4771 6.17353 14.1059 6.17353 13.8764 6.44415ZM6.05869 20.269C5.79013 19.9523 5.79013 19.4456 6.05869 19.1289L13.5786 10.2617C13.8471 9.945 14.2768 9.945 14.5454 10.2617C14.814 10.5784 14.814 11.0851 14.5454 11.4018L7.02553 20.269C6.75697 20.5857 6.32726 20.5857 6.05869 20.269ZM4.29592 25.1115H6.63978V27.2016L3.49022 27.8523L1.97159 26.0615L2.52337 22.3476H4.29592V25.1115Z" fill="#5D78C7"/>
</svg>
