<svg width="1280" height="131" viewBox="0 0 1280 131" fill="none" xmlns="http://www.w3.org/2000/svg">
<path d="M0 129L46.1333 113C92.2667 97 184.533 65 276.8 38.3C369.067 12 461.333 -9.99998 553.6 6.30002C645.867 22 738.133 76 830.4 91.7C922.667 108 1014.93 86 1107.2 91.7C1199.47 97 1291.73 129 1337.87 145L1384 161H1337.87C1291.73 161 1199.47 161 1107.2 161C1014.93 161 922.667 161 830.4 161C738.133 161 645.867 161 553.6 161C461.333 161 369.067 161 276.8 161C184.533 161 92.2667 161 46.1333 161H0L0 129Z" fill="#5EBAC7"/>
</svg>
